<?xml version="1.0" encoding="UTF-8"?>
<svg width="184px" height="165px" viewBox="0 0 184 165" version="1.1" xmlns="http://www.w3.org/2000/svg" xmlns:xlink="http://www.w3.org/1999/xlink">
    <!-- Generator: Sketch 53.2 (72643) - https://sketchapp.com -->
    <title>Octicons-mark-github</title>
    <desc>Created with Sketch.</desc>
    <g id="Page-1" stroke="none" stroke-width="1" fill="none" fill-rule="evenodd">
        <g id="Home-HD" transform="translate(-808.000000, -3882.000000)" fill="#0A2463">
            <g id="Octicons-mark-github" transform="translate(808.000000, 3882.000000)">
                <path d="M92,0 C41.17,0 0,37.8525671 0,84.586742 C0,122.016375 26.335,153.63067 62.905,164.838414 C67.505,165.578548 69.23,163.040945 69.23,160.820543 C69.23,158.811608 69.115,152.150402 69.115,145.066263 C46,148.978399 40.02,139.885325 38.18,135.12732 C37.145,132.695452 32.66,125.188378 28.75,123.179443 C25.53,121.593442 20.93,117.681305 28.635,117.575571 C35.88,117.469838 41.055,123.70811 42.78,126.245713 C51.06,139.039457 64.285,135.444521 69.575,133.224119 C70.38,127.72598 72.795,124.025311 75.44,121.910642 C54.97,119.795973 33.58,112.500367 33.58,80.1459381 C33.58,70.9471299 37.145,63.3343231 43.01,57.4132512 C42.09,55.2985826 38.87,46.6284416 43.93,34.9977645 C43.93,34.9977645 51.635,32.7773625 69.23,43.6679056 C76.59,41.7647039 84.41,40.813103 92.23,40.813103 C100.05,40.813103 107.87,41.7647039 115.23,43.6679056 C132.825,32.6716291 140.53,34.9977645 140.53,34.9977645 C145.59,46.6284416 142.37,55.2985826 141.45,57.4132512 C147.315,63.3343231 150.88,70.8413965 150.88,80.1459381 C150.88,112.6061 129.375,119.795973 108.905,121.910642 C112.24,124.553978 115.115,129.629182 115.115,137.559189 C115.115,148.872666 115,157.965741 115,160.820543 C115,163.040945 116.725,165.684281 121.325,164.838414 C157.665,153.63067 184,121.910642 184,84.586742 C184,37.8525671 142.83,0 92,0 Z" id="Path"></path>
            </g>
        </g>
    </g>
</svg>