<?xml version="1.0" encoding="UTF-8"?>
<svg width="155px" height="152px" viewBox="0 0 155 152" version="1.1" xmlns="http://www.w3.org/2000/svg" xmlns:xlink="http://www.w3.org/1999/xlink">
    <!-- Generator: Sketch 53.2 (72643) - https://sketchapp.com -->
    <title>34227</title>
    <desc>Created with Sketch.</desc>
    <g id="Page-1" stroke="none" stroke-width="1" fill="none" fill-rule="evenodd">
        <g id="Home-HD" transform="translate(-1216.000000, -4199.000000)" fill="#0A2463" fill-rule="nonzero">
            <g id="34227" transform="translate(1216.000000, 4199.000000)">
                <path d="M155,93.5588082 L155,152 L122.001904,152 L122.001904,97.4728469 C122.001904,83.7751815 117.229086,74.4270605 105.284869,74.4270605 C96.166974,74.4270605 90.7409084,80.727009 88.3537832,86.8211489 C87.4832646,88.99978 87.259192,92.0321493 87.259192,95.0817919 L87.259192,152 L54.25,152 C54.25,152 54.6945658,59.6488999 54.25,50.0806372 L87.2559705,50.0806372 L87.2559705,64.5272989 C87.189035,64.6353484 87.1020548,64.7518508 87.0390567,64.8565927 L87.2559705,64.8565927 L87.2559705,64.5272989 C91.6411363,57.5926514 99.4725822,47.6862745 117.001791,47.6862745 C138.719298,47.685907 155,62.2531138 155,93.5588082 Z M18.5183902,0 C7.32282509,0 0,7.72162407 0,17.8758228 C0,27.8087427 7.11096531,35.7647059 18.0840244,35.7647059 L18.3026268,35.7647059 C29.7150199,35.7647059 36.8125,27.8102353 36.8125,17.8758228 C36.5974464,7.72162407 29.7150199,0 18.5183902,0 Z M1.9375,152 L34.875,152 L34.875,50.6666667 L1.9375,50.6666667 L1.9375,152 Z" id="LinkedIn"></path>
            </g>
        </g>
    </g>
</svg>