<?xml version="1.0" standalone="no"?>
<!DOCTYPE svg PUBLIC "-//W3C//DTD SVG 20010904//EN"
 "http://www.w3.org/TR/2001/REC-SVG-20010904/DTD/svg10.dtd">
<svg version="1.0" xmlns="http://www.w3.org/2000/svg"
 width="625.000000pt" height="625.000000pt" viewBox="0 0 625.000000 625.000000"
 preserveAspectRatio="xMidYMid meet">
<metadata>
Created by potrace 1.11, written by Peter Selinger 2001-2013
</metadata>
<g transform="translate(0.000000,625.000000) scale(0.100000,-0.100000)"
fill="#000000" stroke="none">
<path d="M1507 6244 c-1 -1 -74 -5 -162 -8 -88 -3 -171 -8 -185 -11 -13 -2
-53 -7 -88 -10 -36 -3 -67 -7 -71 -9 -3 -2 -37 -7 -75 -11 -38 -3 -72 -8 -75
-9 -3 -2 -33 -7 -66 -10 -33 -4 -69 -9 -80 -11 -11 -2 -40 -7 -65 -10 -76 -9
-149 -30 -151 -43 -2 -8 -7 -111 -12 -237 -4 -103 -2 -112 44 -141 21 -13 49
-43 63 -66 40 -68 91 -270 172 -674 2 -12 16 -62 30 -110 100 -349 269 -493
615 -528 14 -2 30 -5 35 -8 13 -7 299 -2 369 6 125 15 258 42 286 57 11 5 19
8 19 5 0 -9 127 41 190 74 89 48 254 213 324 325 87 139 143 264 212 473 29
89 56 178 60 197 3 20 10 38 15 41 5 3 9 15 9 27 0 37 48 97 93 117 80 36 215
12 245 -44 35 -67 57 -124 112 -287 34 -99 70 -196 80 -215 11 -19 18 -34 16
-34 -10 0 122 -252 164 -315 63 -93 161 -191 246 -245 107 -69 284 -134 399
-146 22 -3 47 -7 55 -10 47 -17 386 -25 506 -12 180 20 336 82 421 167 48 47
122 155 127 184 1 7 7 21 13 32 15 30 83 240 99 310 1 6 9 40 18 76 8 37 17
78 20 90 2 13 11 54 20 90 8 37 17 78 20 90 46 220 78 295 145 341 19 13 38
35 42 49 6 25 4 276 -3 310 -4 20 -27 49 -36 47 -4 -1 -29 2 -57 7 -27 4 -59
9 -70 11 -11 1 -51 8 -90 14 -194 30 -281 38 -640 56 -227 12 -582 7 -705 -10
-19 -3 -61 -8 -93 -11 -32 -3 -95 -13 -140 -21 -45 -8 -91 -16 -102 -18 -65
-10 -290 -77 -370 -111 -46 -20 -154 -53 -222 -69 -57 -13 -209 -15 -259 -3
-45 11 -175 51 -299 92 -176 59 -248 77 -410 104 -75 12 -115 18 -185 26 -30
4 -66 8 -80 10 -61 9 -486 24 -493 19z m3147 -168 c55 -4 114 -9 130 -11 119
-16 184 -27 238 -40 35 -9 71 -18 82 -20 10 -2 37 -13 60 -25 23 -11 47 -20
52 -20 18 0 72 -64 92 -110 51 -117 58 -162 56 -380 -1 -184 -8 -272 -29 -372
-8 -37 -17 -81 -20 -98 -3 -17 -13 -52 -21 -78 -9 -26 -18 -51 -19 -57 -1 -5
-5 -17 -8 -25 -22 -53 -30 -76 -29 -82 1 -5 -3 -8 -8 -8 -6 0 -10 -5 -10 -11
0 -15 -48 -78 -90 -117 -28 -26 -127 -84 -150 -88 -3 0 -25 -6 -50 -13 -185
-53 -443 -48 -740 14 -48 10 -131 38 -136 46 -3 5 -14 9 -25 9 -10 0 -19 4
-19 10 0 5 -16 16 -35 26 -45 21 -155 138 -210 223 -94 146 -174 345 -201 501
-3 14 -7 32 -9 40 -12 40 -19 126 -18 230 1 180 41 261 159 319 72 35 218 79
319 96 11 2 29 5 40 8 68 15 163 26 295 33 58 3 106 7 107 8 3 3 71 0 197 -8z
m-2639 -11 c33 -3 72 -8 87 -10 30 -5 68 -12 121 -20 81 -14 225 -58 277 -86
141 -75 185 -164 183 -364 -3 -204 -52 -388 -166 -625 -107 -222 -232 -356
-394 -419 -73 -29 -185 -57 -258 -66 -16 -2 -50 -7 -75 -11 -93 -14 -259 -10
-405 10 -55 7 -158 37 -198 58 -42 21 -118 94 -139 133 -45 81 -67 125 -63
125 2 0 -3 17 -12 38 -15 36 -28 81 -39 132 -2 14 -7 31 -9 38 -5 13 -32 188
-41 262 -10 75 -12 328 -3 388 15 107 19 121 45 175 40 87 123 154 217 178
143 35 264 55 412 65 44 4 81 7 83 9 5 4 314 -4 377 -10z m-1228 -97 c21 -17
-10 -31 -76 -33 -67 -3 -106 7 -106 26 0 26 152 32 182 7z m4813 13 c28 -2 46
-19 34 -31 -15 -15 -131 -20 -166 -8 -71 25 9 48 132 39z"/>
<path d="M903 4333 c-35 -7 -90 -65 -103 -108 -12 -45 -10 -1792 3 -1832 4
-13 9 -32 11 -43 8 -36 38 -89 64 -116 43 -42 82 -58 149 -58 67 -1 68 -2 78
-91 5 -39 10 -69 35 -185 26 -117 25 -115 41 -170 7 -25 13 -47 14 -50 13 -56
65 -203 104 -295 55 -129 197 -368 259 -434 128 -137 159 -156 232 -145 40 7
90 33 90 48 0 11 10 -1 102 -124 171 -228 448 -457 698 -577 149 -71 173 -81
265 -108 50 -15 100 -31 112 -35 52 -21 194 12 384 88 83 34 244 116 270 138
8 8 19 14 22 14 8 0 96 60 142 97 17 13 48 38 70 56 108 86 295 291 370 405
25 37 55 56 55 34 0 -16 79 -41 114 -36 68 8 98 30 188 136 56 66 152 204 169
243 5 11 13 27 19 35 19 29 86 176 114 250 15 41 32 84 36 95 15 33 76 256 85
310 2 11 13 67 25 125 11 57 22 118 24 135 2 16 4 32 5 35 1 3 29 5 64 6 81 1
137 30 176 94 28 46 34 59 48 115 4 17 9 433 10 925 4 1013 9 948 -73 1000
-100 63 -229 9 -248 -105 -3 -17 -7 -61 -11 -100 -9 -111 -16 -159 -28 -180
-6 -11 -9 -21 -8 -23 5 -5 -12 -68 -23 -81 -6 -8 -10 -15 -8 -15 9 -3 -35
-103 -48 -111 -5 -3 -7 5 -4 17 10 42 4 119 -11 148 -8 16 -32 42 -52 57 -30
23 -46 28 -94 28 -50 0 -64 -5 -114 -40 -72 -49 -88 -57 -150 -77 -102 -32
-236 -40 -302 -17 -42 15 -180 93 -258 147 -71 48 -199 108 -274 127 -98 25
-267 23 -376 -5 -22 -6 -50 -13 -61 -15 -25 -6 -82 -28 -141 -56 -41 -20 -42
-20 -85 -1 -147 67 -241 90 -383 94 -103 3 -186 -9 -261 -37 -61 -23 -155 -69
-179 -88 -41 -31 -220 -138 -265 -156 -42 -18 -72 -23 -135 -22 -90 1 -110 4
-215 36 -33 10 -75 34 -120 68 -69 52 -136 62 -197 28 -63 -36 -82 -75 -80
-165 1 -42 1 -76 0 -76 -2 0 -16 27 -33 60 -17 33 -27 60 -24 60 4 0 2 6 -4
13 -6 7 -13 24 -16 37 -3 14 -10 43 -15 65 -14 59 -22 103 -26 160 -12 162
-25 195 -93 232 -36 19 -85 25 -129 16z m1892 -567 c50 -10 163 -58 184 -78
31 -28 111 -68 138 -68 33 0 89 25 125 55 34 29 108 69 108 59 0 -4 6 -2 13 3
12 10 52 23 92 30 11 2 57 6 102 8 64 3 94 -1 140 -17 56 -20 184 -94 191
-110 2 -4 8 -8 14 -8 5 0 30 -14 54 -31 56 -38 199 -106 239 -113 17 -3 44
-10 60 -14 35 -11 232 -9 288 3 20 4 37 4 37 0 0 -3 -13 -26 -30 -50 -85 -124
-260 -223 -445 -252 -63 -10 -301 -10 -380 -1 -142 17 -298 91 -430 205 -96
83 -132 102 -186 98 -39 -3 -100 -30 -111 -50 -13 -22 -142 -121 -204 -157
-136 -79 -271 -107 -489 -104 -175 3 -270 24 -400 90 -61 30 -100 60 -162 123
-46 46 -83 88 -83 94 0 7 16 8 48 3 59 -10 235 -11 282 -2 80 16 268 97 278
120 2 5 8 8 14 8 5 0 24 11 41 24 58 42 153 97 213 121 50 20 72 24 144 20 47
-2 99 -6 115 -9z m-1631 -459 c51 -38 180 -87 228 -87 28 0 78 -19 78 -29 0
-20 125 -131 205 -182 75 -48 215 -107 295 -124 3 -1 19 -4 35 -8 93 -22 181
-31 315 -31 306 0 511 59 728 207 51 34 78 47 87 41 98 -72 180 -121 265 -158
44 -19 163 -57 193 -61 12 -2 58 -8 102 -15 236 -35 544 -4 712 71 35 15 63
26 63 23 0 -3 13 4 29 15 16 12 32 21 35 21 8 0 105 68 134 94 13 12 47 45 76
74 48 50 58 55 124 67 78 15 186 59 214 87 42 42 43 33 41 -289 -1 -170 -2
-311 -2 -315 -1 -4 -20 1 -43 11 -47 19 -96 18 -139 -4 -29 -16 -79 -70 -80
-88 0 -7 -2 -19 -3 -27 -2 -8 -6 -62 -10 -120 -9 -140 -14 -197 -22 -245 -4
-22 -8 -53 -10 -70 -2 -16 -6 -41 -8 -55 -3 -13 -8 -42 -12 -65 -4 -32 -29
-139 -58 -256 -14 -54 -80 -240 -90 -251 -6 -7 -10 -11 -9 -9 3 6 -28 64 -45
84 -38 43 -111 59 -174 38 -32 -11 -97 -69 -99 -89 -3 -34 -60 -186 -102 -272
-32 -68 -117 -221 -126 -230 -4 -3 -26 -34 -50 -70 -200 -293 -498 -520 -827
-629 l-92 -31 -68 21 c-77 23 -110 37 -204 82 -36 17 -67 31 -70 32 -16 3
-118 69 -200 129 -98 74 -222 191 -301 286 -98 118 -229 337 -290 485 -26 63
-60 158 -65 180 -6 29 -36 67 -74 93 -24 16 -47 22 -85 22 -64 0 -111 -29
-140 -85 -11 -22 -21 -42 -23 -45 -13 -20 -118 308 -147 465 -12 62 -13 67
-19 110 -2 22 -5 40 -6 40 -2 0 -6 25 -14 95 -4 30 -9 69 -11 85 -2 17 -6 82
-10 145 -7 129 -18 174 -49 208 -48 54 -116 69 -183 40 -31 -12 -43 -14 -44
-5 -6 89 -2 617 5 617 5 0 23 -10 40 -23z"/>
</g>
</svg>
